<?xml version="1.0" encoding="utf-8"?>
<!-- Generator: Adobe Illustrator 19.0.0, SVG Export Plug-In . SVG Version: 6.00 Build 0)  -->
<svg version="1.2" baseProfile="tiny" id="Layer_1" xmlns="http://www.w3.org/2000/svg" xmlns:xlink="http://www.w3.org/1999/xlink"
	 x="0px" y="0px" viewBox="0 0 393.0126953 512.8001099" xml:space="preserve">
<g id="XMLID_1_">
	<path id="XMLID_10_" fill="#899E00" d="M196.5063477,177.8001099L0,341.8001099h46.5063477v171h120V410.5620117h0.0060425
		c0.1286621-16.458374,13.505249-29.7619019,29.9939575-29.7619019s29.8652954,13.3035278,29.9939575,29.7619019h0.0060425
		v102.2380981h120v-171h46.5063477L196.5063477,177.8001099z"/>
	<path id="XMLID_11_" fill="#899E00" d="M97.3850098,245.2468262c5.8807373,0,11.7609253-2.2355957,16.2478027-6.7224731
		l75.4191895-75.4348145l-32.4955444-32.4648438l-79.3031006,79.3035278
		c-2.7972412,2.7973022-4.2185059,6.696106-3.8638306,10.6361694
		C74.8740845,237.0559082,86.1286621,245.2468262,97.3850098,245.2468262z"/>
	<polygon id="XMLID_12_" fill="#899E00" points="269.6321411,66.262146 302.4798584,49.2788696 319.6766968,16.0332031
		303.6434937,0 270.4129028,17.2124634 253.3994141,50.02948 213.4464111,90.0283203 229.6483154,106.2610474 	"/>
	<path id="XMLID_13_" fill="#899E00" d="M117.5222168,91.5753174l3.0935059,0.3063354
		c5.6046753,0,10.9187012-1.1485596,15.8800659-2.9706421l154.2703857,154.2860107l27.0894165-27.0747681L163.5695801,61.821106
		c1.8376465-4.9613647,2.9862061-10.2753906,2.9862061-15.8800659l-0.3062744-3.0934448
		C164.6264648,18.9428711,144.9330444,0,120.6152344,0c-7.0750732,0-13.7058716,1.7304077-19.6934204,4.5941772
		l30.5198975,30.5198975c1.6079712,1.6079712,2.7106323,3.5065918,3.4456177,5.5130005
		c2.0059204,5.4207764,0.9188232,11.7609253-3.4456177,16.1405029c-2.9862061,2.9862061-6.906311,4.4868164-10.8264771,4.4868164
		c-1.8069458,0-3.5987549-0.3979492-5.3140259-1.0411987c-2.0059204-0.765686-3.9050293-1.8377075-5.5129395-3.4607544
		L79.2688599,26.2476807c-2.8638306,5.9874878-4.5941772,12.6182861-4.5941772,19.6934204
		C74.6746826,70.2588501,93.6174927,89.9522705,117.5222168,91.5753174z"/>
</g>
</svg>
